<svg xmlns="http://www.w3.org/2000/svg" viewBox="0 0 582.28 461.5"><defs><style>.cls-1{fill:#4ecfba;}.cls-2{fill:#2e4166;}.cls-3{fill:#ff9d14;}</style></defs><g id="Layer_2" data-name="Layer 2"><g id="Layer_1-2" data-name="Layer 1"><path class="cls-1" d="M433.83,434.78a219.56,219.56,0,0,0,42.54-22.9V198.06c-11,5.27-25.48,12.09-42.54,19.75Z"/><path class="cls-2" d="M361.76,450.49a219.05,219.05,0,0,0,42.54-6.15V230.75c-13.36,5.71-27.65,11.62-42.54,17.5Z"/><path class="cls-2" d="M289.69,441.88a218.85,218.85,0,0,0,42.54,8V259.54c-14,5.16-28.21,10.16-42.54,14.84Z"/><path class="cls-2" d="M217.62,293.29v112a219.55,219.55,0,0,0,42.54,25.62V283.51l-3.07.89C246.12,287.55,232.57,290.59,217.62,293.29Z"/><path class="cls-2" d="M351.53,461.5c127.24,0,230.75-103.51,230.75-230.75S478.77,0,351.53,0C230.83,0,130.32,93.59,121.46,213.6c6.84.31,14,.4,21.55.28,8.67-108.09,99.76-192.39,208.52-192.39,115.39,0,209.26,93.88,209.26,209.26S466.92,440,351.53,440C265,440,186.71,385.81,156,304.92c-7.6.62-15.09,1.07-22.35,1.37A230.32,230.32,0,0,0,351.53,461.5Z"/><path class="cls-3" d="M69.93,146.61S-46,271.38,234.16,230.5c44.29-6.46,126.32-31.9,155.85-52l-20.13-28.67,128.94,15.68s-123.24,69-241.73,97.4C41,314.71,5,247,1.15,232.85-10.48,190.48,69.93,146.61,69.93,146.61Z"/></g></g></svg>